<?xml version="1.0" encoding="iso-8859-1"?>
<!-- Uploaded to: SVG Repo, www.svgrepo.com, Generator: SVG Repo Mixer Tools -->
<!DOCTYPE svg PUBLIC "-//W3C//DTD SVG 1.1//EN" "http://www.w3.org/Graphics/SVG/1.1/DTD/svg11.dtd">
<svg fill="#000000" height="800px" width="800px" version="1.1" id="Capa_1" xmlns="http://www.w3.org/2000/svg" xmlns:xlink="http://www.w3.org/1999/xlink" 
	 viewBox="0 0 352.387 352.387" xml:space="preserve">
<path d="M345.312,6.732c-4.309-4.31-11.3-6.403-21.374-6.403c-10.441,0-22.986,2.218-34.055,4.175
	c-2.231,0.395-4.418,0.781-6.53,1.14c-29.602,5.026-48,21.195-81.4,50.547c-3.461,3.041-7.092,6.232-10.923,9.576l-1.433,1.251
	l-4.611,36.38L173.774,80.66l-4.882,4.107c-10.536,8.865-20.832,17.254-31.474,25.645c-18.604,14.67-32.874,25.576-44.339,34.34
	c-4.323,3.305-8.172,6.246-11.599,8.891l-1.645,1.269l-3.259,25.714l-8.271-16.771l-4.918,4.571
	c-11.134,10.348-11.374,16.244-10.855,28.596c0.292,6.934,0.19,20.573,0.082,35.015c-0.19,25.469-0.138,40.441,0.27,49.461
	L3.661,330.72c-4.881,4.882-4.881,12.796,0,17.678c2.441,2.44,5.64,3.661,8.839,3.661s6.398-1.221,8.839-3.661l49.231-49.231
	c5.565,0.248,13.445,0.379,24.734,0.379c7.996,0,16.47-0.063,24.665-0.125c7.501-0.056,14.586-0.108,20.705-0.108
	c6.639,0,11.328,0.065,14.336,0.2c2.167,0.097,4.108,0.178,5.917,0.178c0.001,0,0,0,0.001,0c15.25,0,19.792-5.941,44.979-38.902
	l3.692-4.831l-19.91-9.818l30.393-3.852l1.27-1.646c6.871-8.911,13.505-17.42,20.28-26.014
	c18.557-23.536,34.399-41.934,48.756-58.309l4.295-4.898l-27.766-13.692l44.622-5.655l1.258-1.487
	c18.741-22.162,29.647-38.59,33.604-61.894c0.568-3.348,1.239-6.8,1.949-10.456C352.227,38.285,356.236,17.655,345.312,6.732z"/>
</svg>